<?xml version="1.0" encoding="iso-8859-1"?>
<!-- Uploaded to: SVG Repo, www.svgrepo.com, Generator: SVG Repo Mixer Tools -->
<svg fill="#ffffff" height="800px" width="800px" version="1.1" id="Layer_1" xmlns="http://www.w3.org/2000/svg" xmlns:xlink="http://www.w3.org/1999/xlink"
	 viewBox="0 0 491.52 491.52" xml:space="preserve">
<g>
	<g>
		<path d="M102.4,40.96v92.16H0v317.44h399.36v-102.4h92.16V40.96H102.4z M378.88,430.08H20.48v-16.24l81.92-81.92L148.48,378
			L256,270.48l122.88,122.88V430.08z M378.88,364.4L256,241.52L148.48,349.04l-46.08-46.08l-81.92,81.92V153.6h358.4V364.4z
			 M471.04,327.68h-71.68V133.12H122.88V61.44h348.16V327.68z"/>
	</g>
</g>
<g>
	<g>
		<path d="M92.16,184.32c-22.59,0-40.96,18.375-40.96,40.96c0,22.585,18.37,40.96,40.96,40.96c22.59,0,40.96-18.375,40.96-40.96
			C133.12,202.695,114.75,184.32,92.16,184.32z M92.16,245.76c-11.29,0-20.48-9.185-20.48-20.48c0-11.295,9.19-20.48,20.48-20.48
			c11.29,0,20.48,9.185,20.48,20.48C112.64,236.575,103.45,245.76,92.16,245.76z"/>
	</g>
</g>
</svg>